<svg xmlns="http://www.w3.org/2000/svg" width="12" height="14" viewBox="0 0 12 14">
  <g id="icon" transform="translate(-102 -77)">
    <g id="Прямоугольник_267" data-name="Прямоугольник 267" transform="translate(102 77)" fill="none" stroke="#4d4f52" stroke-width="1">
      <rect width="12" height="14" rx="2" stroke="none"/>
      <rect x="0.5" y="0.5" width="11" height="13" rx="1.5" fill="none"/>
    </g>
    <g id="Прямоугольник_271" data-name="Прямоугольник 271" transform="translate(102 81)" fill="none" stroke="#4d4f52" stroke-width="1">
      <path d="M2,0H6A2,2,0,0,1,8,2v8a0,0,0,0,1,0,0H2A2,2,0,0,1,0,8V2A2,2,0,0,1,2,0Z" stroke="none"/>
      <path d="M2,.5H6A1.5,1.5,0,0,1,7.5,2V9.5a0,0,0,0,1,0,0H2A1.5,1.5,0,0,1,.5,8V2A1.5,1.5,0,0,1,2,.5Z" fill="none"/>
    </g>
  </g>
</svg>
