<svg xmlns="http://www.w3.org/2000/svg" width="14" height="14" viewBox="0 0 14 14">
  <g id="icon" transform="translate(-136 -79)">
    <g id="home_Icon" data-name="home Icon" transform="translate(161.287 75.687)" fill="none">
      <path d="M-21.285,17.314a4,4,0,0,1-4-4v-2.88a3.957,3.957,0,0,1,1.17-2.949l3-3a4,4,0,0,1,5.656,0l2.883,2.884a4.211,4.211,0,0,1,1.291,2.943v3a4,4,0,0,1-4,4Z" stroke="none"/>
      <path d="M -15.28604888916016 16.31357383728027 C -13.63209915161133 16.31357383728027 -12.28651905059814 14.96759414672852 -12.28651905059814 13.31315422058105 L -12.28651905059814 10.31273365020752 C -12.28651905059814 9.235584259033203 -12.91183853149414 8.449294090270996 -13.28464889526367 8.076414108276367 L -16.16780853271484 5.192173957824707 C -16.7342586517334 4.625603675842285 -17.48748970031738 4.313573837280273 -18.28873825073242 4.313573837280273 C -19.08997917175293 4.313573837280273 -19.84320831298828 4.625603675842285 -20.40960884094238 5.192113876342773 L -23.40762901306152 8.191253662109375 C -23.99845886230469 8.782214164733887 -24.31008911132812 9.567753791809082 -24.28510856628418 10.40317344665527 L -24.28465843200684 10.43306350708008 L -24.28465843200684 13.31315422058105 C -24.28465843200684 14.96759414672852 -22.93907928466797 16.31357383728027 -21.28512954711914 16.31357383728027 L -15.28604888916016 16.31357383728027 M -15.28604888916016 17.31357383728027 L -21.28512954711914 17.31357383728027 C -23.49388885498047 17.31357383728027 -25.28465843200684 15.5224142074585 -25.28465843200684 13.31315422058105 L -25.28465843200684 10.43306350708008 C -25.31645965576172 9.36954402923584 -24.9400691986084 8.309663772583008 -24.11480903625488 7.48422384262085 L -21.11684799194336 4.485143661499023 C -19.55510139465332 2.923055171966553 -17.02238273620605 2.923052310943604 -15.46062850952148 4.485143661499023 L -12.57740879058838 7.369433879852295 C -11.83443927764893 8.112564086914062 -11.28651905059814 9.148504257202148 -11.28651905059814 10.31273365020752 L -11.28651905059814 13.31315422058105 C -11.28651905059814 15.5224142074585 -13.07727909088135 17.31357383728027 -15.28604888916016 17.31357383728027 Z" stroke="none" fill="#1c1f29"/>
    </g>
  </g>
</svg>
