<svg xmlns="http://www.w3.org/2000/svg" width="14" height="14" viewBox="0 0 14 14">
  <g id="icon" transform="translate(-2056 167)">
    <g id="Прямоугольник_264" data-name="Прямоугольник 264" transform="translate(2056 -167)" fill="none" stroke="#4d4f52" stroke-width="1">
      <rect width="14" height="14" rx="4" stroke="none"/>
      <rect x="0.5" y="0.5" width="13" height="13" rx="3.5" fill="none"/>
    </g>
    <g id="Прямоугольник_265" data-name="Прямоугольник 265" transform="translate(2056 -163)" fill="none" stroke="#4d4f52" stroke-width="1">
      <path d="M0,0H10a4,4,0,0,1,4,4V6a4,4,0,0,1-4,4H4A4,4,0,0,1,0,6V0A0,0,0,0,1,0,0Z" stroke="none"/>
      <path d="M.5.5H10A3.5,3.5,0,0,1,13.5,4V6A3.5,3.5,0,0,1,10,9.5H4A3.5,3.5,0,0,1,.5,6V.5A0,0,0,0,1,.5.5Z" fill="none"/>
    </g>
  </g>
</svg>
