<svg xmlns="http://www.w3.org/2000/svg" width="14.3" height="13.266" viewBox="0 0 14.3 13.266">
  <path id="icon" d="M263.1,215.1H250.5a.766.766,0,0,0-.79.608c-.008,1.24.378,5.215,5.439,7.006v1.916a1.623,1.623,0,0,0-1.605,1.621v1.117s.09.7,1.006.7h4.437s.9-.076.9-.811v-1a1.628,1.628,0,0,0-1.6-1.621v-1.919c4.793-1.7,5.382-5.36,5.425-6.786a.7.7,0,0,1,0-.1v-.029a.607.607,0,0,0-.612-.693Zm-12.851.954a.384.384,0,0,1,.418-.415h1.472a14.362,14.362,0,0,0,.755,5.314,6.325,6.325,0,0,1-2.646-4.9Zm9.1,10.2v1c-.037.121-.151.272-.5.272h-4.253c-.425,0-.5-.228-.512-.35v-.925a1.087,1.087,0,0,1,1.085-1.085h3.088a1.088,1.088,0,0,1,1.088,1.086Zm-3.656-1.624v-1.738c.306.094.624.184.965.259l.06.013.061-.013c.343-.078.662-.167.973-.262v1.741Zm1.025-2.016a11.02,11.02,0,0,1-3.067-1.168,14.165,14.165,0,0,1-.984-5.332c0-.012.076-.473.742-.473h6.7a.558.558,0,0,1,.615.545v.005a14.273,14.273,0,0,1-.993,5.277,10.894,10.894,0,0,1-3.01,1.146Zm3.764-1.639a14.414,14.414,0,0,0,.762-5.334h1.582c.134.013.367.107.335.627h0a6.466,6.466,0,0,1-2.678,4.706Z" transform="translate(-249.562 -214.95)" fill="#4d4f52" stroke="#4d4f52" stroke-width="0.3"/>
</svg>
